<svg width="990" height="301" viewBox="0 0 990 301" fill="none" xmlns="http://www.w3.org/2000/svg">
<g clip-path="url(#clip0_148_29)">
<path d="M142.275 3.12928H89.8413L34.8691 105.435H69.5371L79.1961 86.7332H152.919L162.578 105.435H197.246L142.274 3.12928H142.275ZM91.073 63.6453L110.538 26.0688H121.577L141.042 63.6453H91.073ZM198.037 2.19306V105.632H232.902V37.0843L309.458 105.632H344.323V2.19306H309.458V67.2681L237.459 2.19306H198.035H198.037ZM463.561 1.47875V49.3301C463.561 53.0015 463.043 56.426 461.984 59.605C460.924 62.759 459.1 65.8881 456.538 68.9686C453.975 72.0491 450.157 74.4888 445.057 76.2864C439.98 78.0853 433.87 78.9716 426.725 78.9716C419.48 78.9716 413.271 78.0839 408.072 76.2864C402.899 74.4875 399.054 72.0477 396.541 68.9686C394.003 65.8881 392.229 62.759 391.169 59.605C390.109 56.426 389.592 53.0015 389.592 49.3301V1.47875H354.258V51.2511C354.258 54.2817 354.48 57.3123 354.948 60.3429C355.391 63.3984 356.303 66.7494 357.658 70.4208C359.013 74.0922 360.738 77.5416 362.856 80.7692C364.976 83.9717 367.834 87.1507 371.456 90.2798C375.102 93.4089 379.266 96.0705 383.997 98.2633C388.728 100.481 394.542 102.255 401.443 103.585C408.316 104.915 415.956 105.581 424.309 105.581H429.754C440.718 105.581 450.452 104.3 458.953 101.713C467.454 99.1496 474.131 95.9221 478.96 92.0787C483.79 88.2104 487.757 83.7262 490.886 78.6249C494.015 73.5249 496.084 68.7689 497.144 64.3582C498.204 59.9476 498.746 55.5869 498.746 51.2497V1.47737H463.561V1.47875ZM508.556 2.19306V105.632H543.421V37.0843L619.978 105.632H654.842V2.19306H619.978V67.2681L547.979 2.19306H508.555H508.556ZM736.011 107.308H742.245C754.491 107.308 765.358 106.248 774.844 104.104C784.306 101.961 791.672 99.3729 796.946 96.2938C802.219 93.2383 806.506 89.6903 809.857 85.6486C813.208 81.6083 815.401 77.9605 816.461 74.7094C817.521 71.4569 818.063 68.2779 818.063 65.2223V63.6952H780.536C780.536 63.7688 780.486 63.9172 780.388 64.1141C776.224 76.0894 762.548 82.0771 739.362 82.0771C731.552 82.0771 724.775 81.1894 718.984 79.4404C713.218 77.6664 708.858 75.3252 705.926 72.3931C702.993 69.461 700.826 66.4554 699.469 63.3499C698.089 60.2208 697.425 56.9933 697.425 53.6423V51.9918C697.425 48.4438 698.016 45.1913 699.249 42.2342C700.457 39.2522 702.501 36.4186 705.385 33.7333C708.292 31.0232 712.579 28.9038 718.32 27.3767C724.037 25.8497 730.959 25.0854 739.041 25.0854C745.842 25.0854 751.83 25.6277 757.053 26.6874C762.276 27.7471 766.22 28.9302 768.905 30.2353C771.59 31.5419 773.883 33.1675 775.755 35.1148C777.628 37.0608 778.786 38.4907 779.23 39.377C779.699 40.2397 780.067 41.2495 780.388 42.3577H817.914V40.8306C817.914 37.9484 817.422 34.9414 816.461 31.8373C815.5 28.7318 813.38 25.2089 810.079 21.2421C806.802 17.3002 802.54 13.8258 797.315 10.7952C792.116 7.76462 784.724 5.22642 775.213 3.13205C765.702 1.03769 754.712 0.00299072 742.244 0.00299072H736.01C723.246 0.00299072 712.084 1.20968 702.5 3.62444C692.939 6.0392 685.571 8.99627 680.398 12.5442C675.224 16.0672 671.059 20.3058 667.857 25.2089C664.678 30.1369 662.608 34.5974 661.697 38.5878C660.811 42.6046 660.342 46.8183 660.342 51.2775V55.3178C660.342 58.2013 660.564 61.0835 661.031 63.9671C661.475 66.8507 662.436 70.0532 663.915 73.5776C665.393 77.1005 667.241 80.403 669.459 83.4821C671.677 86.5377 674.781 89.5932 678.724 92.5988C682.666 95.6294 687.2 98.1926 692.325 100.262C697.45 102.356 703.758 104.057 711.249 105.362C718.739 106.669 726.994 107.309 736.012 107.309L736.011 107.308ZM858.596 2.29153H823.361V105.484H858.596V2.29153ZM868.405 1.79915V105.509H989.043V81.3864H903.345V64.3846H985.544V40.6808H903.345V25.3545H987.54V1.79915H868.405Z" fill="#FFCC00"/>
<path d="M473.859 137.94H409.619L342.271 263.28H384.744L396.578 240.367H486.901L498.735 263.28H541.209L473.859 137.94ZM411.129 212.082L434.977 166.044H448.502L472.35 212.082H411.129ZM726.563 182.166C726.111 178.663 725.054 174.709 723.423 170.301C721.793 165.893 719.649 161.849 717.023 158.136C714.396 154.392 710.775 150.679 706.095 146.966C701.446 143.253 695.982 140.113 689.734 137.578C683.515 135.012 675.788 132.959 666.579 131.389C657.372 129.819 647.107 129.034 635.788 129.034H628.272C616.951 129.034 606.628 129.819 597.299 131.389C587.971 132.959 580.212 135.012 573.964 137.578C567.716 140.113 562.281 143.253 557.602 146.966C552.952 150.679 549.3 154.392 546.673 158.105C544.048 161.849 541.965 165.924 540.395 170.391C538.795 174.859 537.798 178.813 537.315 182.225C536.863 185.666 536.621 189.289 536.621 193.123V198.345C536.621 202.058 536.862 205.65 537.315 209.152C537.798 212.624 538.795 216.609 540.395 221.076C541.965 225.544 544.048 229.68 546.673 233.454C549.3 237.228 552.983 241 557.692 244.775C562.431 248.549 567.865 251.718 574.053 254.345C580.242 256.941 587.97 259.084 597.298 260.685C606.626 262.314 616.95 263.13 628.271 263.13H635.787C647.107 263.13 657.402 262.314 666.668 260.685C669.234 260.233 671.679 259.749 674.004 259.205L694.38 279.581L719.95 254.012L708.629 242.691C712.16 239.612 715.028 236.533 717.112 233.454C719.678 229.68 721.792 225.545 723.421 221.076C725.051 216.609 726.077 212.624 726.561 209.152C727.013 205.65 727.256 202.058 727.256 198.345V193.123C727.256 189.289 727.015 185.636 726.561 182.164L726.563 182.166ZM661.417 195.478L635.848 221.047L645.658 230.857C641.432 231.34 636.873 231.612 631.953 231.612C621.448 231.612 612.513 230.495 605.177 228.291C597.841 226.087 592.407 223.129 588.906 219.416C585.404 215.703 582.928 211.99 581.48 208.277C580.031 204.564 579.307 200.61 579.307 196.443V194.329C579.307 171.688 596.847 160.367 631.954 160.367C640.468 160.367 647.924 161.091 654.324 162.571C660.754 164.021 665.825 165.832 669.538 168.035C673.281 170.239 676.301 172.925 678.624 176.064C680.979 179.174 682.548 182.222 683.363 185.121C684.179 188.019 684.57 191.098 684.57 194.328V196.773C684.57 200.97 683.846 204.894 682.397 208.638C681.732 210.328 680.796 212.05 679.68 213.739L661.416 195.475L661.417 195.478ZM877.562 135.918V194.543C877.562 199.041 876.928 203.237 875.63 207.131C874.332 210.996 872.099 214.829 868.959 218.603C865.82 222.377 861.14 225.365 854.892 227.569C848.673 229.773 841.187 230.859 832.432 230.859C823.557 230.859 815.949 229.773 809.58 227.569C803.24 225.365 798.531 222.376 795.452 218.603C792.342 214.829 790.169 210.996 788.871 207.131C787.573 203.237 786.939 199.041 786.939 194.543V135.918H743.649V196.897C743.649 200.61 743.921 204.323 744.494 208.036C745.038 211.779 746.154 215.885 747.814 220.383C749.475 224.881 751.588 229.107 754.183 233.061C756.78 236.985 760.282 240.88 764.719 244.713C769.187 248.547 774.288 251.808 780.084 254.495C785.88 257.212 793.004 259.385 801.456 261.015C809.88 262.645 819.238 263.46 829.471 263.46H836.142C849.575 263.46 861.501 261.89 871.916 258.721C882.331 255.581 890.511 251.626 896.428 246.917C902.345 242.178 907.205 236.684 911.039 230.434C914.872 224.186 917.408 218.359 918.706 212.955C920.004 207.552 920.669 202.209 920.669 196.895V135.916H877.561L877.562 135.918ZM985.333 136.913H942.164V263.341H985.333V136.913Z" fill="#FEFEFE"/>
<path fill-rule="evenodd" clip-rule="evenodd" d="M240.635 133.679H267.399L186.131 263.46H159.363L240.634 133.679H240.635ZM330.758 133.679H357.522L276.251 263.46H249.487L330.758 133.679ZM285.695 133.679H312.462L231.191 263.46H204.425L285.696 133.679H285.695Z" fill="#FEFEFE"/>
<path fill-rule="evenodd" clip-rule="evenodd" d="M49.7334 175.856C49.6349 175.26 49.2036 175.905 50.0857 174.939L55.3424 170.334C54.4173 169.298 53.5102 168.239 52.5934 167.192C51.6086 166.067 50.198 164.886 50.4949 164.268L56.1067 159.247L45.5683 147.349L27.701 162.917L32.7344 168.836C32.6553 169.402 33.4334 168.694 32.3904 169.512L27.142 174.189L31.1837 178.806C32.6206 180.408 32.1782 179.928 32.0353 180.354L26.2113 185.306L31.5499 191.488L25.6122 196.852L30.579 202.578C30.468 202.965 30.6802 202.668 30.3404 203.119L18.8949 213.23C19.8131 214.262 20.7202 215.311 21.6301 216.351C22.1863 216.986 23.9811 218.526 23.816 219.365L12.1222 229.561C12.9364 231.337 15.813 233.925 17.164 235.652L11.2595 240.927L53.2064 288.878L59.2274 283.671C60.6199 285.183 63.1526 288.701 64.6367 289.507L82.3458 273.989C83.3597 274.277 86.9937 278.897 87.7537 279.682L141.645 232.44L136.767 226.767C136.711 226.143 136.265 226.863 137.165 225.879L142.39 221.333L137.267 215.471L107.385 241.586C106.249 241.041 102.733 236.828 101.923 235.509L137.79 204.079C135.772 201.711 129.279 193.74 127.315 192.307L97.5029 218.331L92.3447 212.294C95.1645 209.674 127.075 182.294 128.14 180.701L117.73 168.928L78.214 203.511C77.6217 203.475 78.3028 203.995 77.257 203.016C77.171 202.934 76.7341 202.392 76.6203 202.259L72.6438 197.59L142.303 136.544L131.828 124.759L50.2078 196.177L45.037 190.131L54.7391 181.62L49.7334 175.859V175.856Z" fill="white"/>
<path fill-rule="evenodd" clip-rule="evenodd" d="M60.6616 176.285L55.6712 170.562C54.4604 171.322 50.4173 174.753 49.7335 175.856L54.7391 181.618L45.0371 190.128L50.2078 196.174L131.828 124.756L126.672 118.95C124.753 120.233 72.1321 166.623 64.7227 173.11L60.8516 176.254C60.8697 176.225 60.7254 176.278 60.6602 176.285H60.6616Z" fill="#020202"/>
<path fill-rule="evenodd" clip-rule="evenodd" d="M78.2156 203.51L117.731 168.927L128.142 180.699C129.197 179.171 132.182 176.974 133.716 175.612L124.699 165.341C122.961 163.436 123.68 163.968 123.751 163.458C125.029 162.802 145.98 144.506 147.479 142.812L142.36 136.876L72.9395 197.66L78.2156 203.509V203.51Z" fill="#010101"/>
<path fill-rule="evenodd" clip-rule="evenodd" d="M69.759 295.43C69.2014 294.186 65.8074 290.43 64.6382 289.507C63.1541 288.702 60.6214 285.185 59.2289 283.671L53.2079 288.878L11.261 240.927L17.1655 235.652C15.8145 233.924 12.9379 231.336 12.1237 229.561C11.4191 228.226 8.16108 224.436 6.92666 223.71C7.42459 225.086 10.7728 228.226 11.9212 229.705L0 240.233L52.5172 300.134L64.4676 289.69C65.5883 290.913 68.6355 294.987 69.759 295.429V295.43Z" fill="#020202"/>
<path fill-rule="evenodd" clip-rule="evenodd" d="M93.1022 285.784L147.015 238.557L141.895 232.706L87.8899 279.925L93.1022 285.784Z" fill="#020202"/>
<path fill-rule="evenodd" clip-rule="evenodd" d="M128.142 180.701C127.077 182.293 95.166 209.672 92.3462 212.294L97.5044 218.331L127.317 192.307C128.003 192.253 127.153 191.726 128.231 192.716L138.023 203.93L143.909 198.705L128.297 180.846L134.257 175.594L123.749 163.46C123.678 163.97 122.96 163.438 124.698 165.344L133.715 175.615C132.181 176.977 129.195 179.174 128.14 180.702L128.142 180.701Z" fill="#020202"/>
<path fill-rule="evenodd" clip-rule="evenodd" d="M21.8189 168.085L26.9189 173.974L32.7332 168.838L27.6998 162.918L45.5671 147.351C46.0359 147.424 45.6683 147.238 46.1413 147.568L51.0138 153.011C52.6865 154.886 54.6145 157.298 56.4023 158.972L62.2457 153.842L46.4187 135.915L22.4611 156.99L27.6485 162.922L21.8162 168.085H21.8189Z" fill="#020202"/>
<path fill-rule="evenodd" clip-rule="evenodd" d="M137.345 215.191L142.597 221.147L148.364 216.1L138.174 204.461L137.996 204.253L102.191 235.598L107.288 241.338L137.345 215.191Z" fill="#010101"/>
<path fill-rule="evenodd" clip-rule="evenodd" d="M64.6382 289.507C65.8074 290.429 69.2 294.185 69.759 295.43L87.543 279.868L82.3474 273.989L64.6382 289.507Z" fill="#010101"/>
<path fill-rule="evenodd" clip-rule="evenodd" d="M6.92676 223.712C8.16118 224.436 11.4179 228.228 12.1238 229.562L23.8176 219.366L18.6621 213.352L6.92676 223.712Z" fill="#010101"/>
<path fill-rule="evenodd" clip-rule="evenodd" d="M13.6426 207.249L18.6843 212.975L30.5806 202.579L25.6124 196.855L13.6426 207.249Z" fill="#020202"/>
<path fill-rule="evenodd" clip-rule="evenodd" d="M132.16 124.562L142.461 136.329L148.156 131.274L137.897 119.529L132.16 124.562Z" fill="#020202"/>
<path fill-rule="evenodd" clip-rule="evenodd" d="M107.288 241.338L102.191 235.597L137.998 204.252L138.175 204.46L148.366 216.098L142.599 221.146L137.346 215.19L107.29 241.338H107.288ZM127.317 192.306C129.281 193.74 135.773 201.711 137.791 204.077L101.925 235.508C102.736 236.827 106.252 241.039 107.387 241.584L137.268 215.47L142.392 221.331L137.167 225.878C136.267 226.861 136.711 226.142 136.769 226.766L142.54 221.559L147.631 227.279L141.647 232.439L87.7553 279.681C86.9966 278.895 83.3613 274.275 82.3474 273.987L87.5431 279.867L69.759 295.429C69.9948 295.435 69.6689 295.656 70.257 295.322L87.7068 280.087C88.3448 280.816 92.1035 285.565 93.1036 285.782L87.8912 279.924L141.897 232.705L147.872 227.394C147.006 225.725 144.153 223.022 142.825 221.352C144.27 219.979 147.689 217.488 148.582 216.023L138.207 204.109L143.689 199.257C144.069 198.721 143.808 199.205 143.911 198.703L138.024 203.927L128.232 192.714C127.153 191.725 128.005 192.25 127.318 192.304L127.317 192.306Z" fill="#7E7E7E"/>
<path fill-rule="evenodd" clip-rule="evenodd" d="M137.897 119.529L148.156 131.275L142.46 136.331L132.158 124.564L137.895 119.53L137.897 119.529ZM60.6616 176.285C60.7254 176.279 60.8697 176.225 60.853 176.254L64.7241 173.11C72.1321 166.623 124.755 120.233 126.673 118.95L131.83 124.756L142.304 136.542L72.6453 197.588L76.6218 202.256C76.7355 202.391 77.1724 202.933 77.2584 203.013C78.3042 203.993 77.6232 203.473 78.2154 203.509L72.9393 197.66L142.36 136.876L147.479 142.812C147.532 142.165 148.038 142.887 147.008 141.622L142.6 136.623L148.44 131.474C147.834 130.173 139.479 120.834 137.963 119.315L131.975 124.414L126.807 118.611C124.667 119.647 68.8768 169.595 60.6616 176.282V176.285Z" fill="#585858"/>
<path fill-rule="evenodd" clip-rule="evenodd" d="M25.8938 185.589L20.3569 190.503L25.4569 196.513L31.2837 191.368C30.4681 190.457 26.9244 186.019 25.8938 185.589Z" fill="#010101"/>
<path fill-rule="evenodd" clip-rule="evenodd" d="M21.0144 179.587L26.2115 185.308L32.0355 180.357L26.9175 174.329L21.0144 179.587Z" fill="#020202"/>
<path fill-rule="evenodd" clip-rule="evenodd" d="M50.4949 164.269L55.6503 170.156L61.4064 165.105L56.1067 159.248L50.4949 164.269Z" fill="#010101"/>
<path fill-rule="evenodd" clip-rule="evenodd" d="M136.769 226.767L141.647 232.44L147.63 227.28L142.54 221.56L136.769 226.767Z" fill="#010101"/>
<path fill-rule="evenodd" clip-rule="evenodd" d="M56.1068 159.248L61.4079 165.105L55.6519 170.154L50.4964 164.268C50.1996 164.886 51.6102 166.067 52.595 167.191C53.5118 168.239 54.4189 169.298 55.344 170.334L50.0873 174.939C49.2051 175.903 49.6365 175.258 49.735 175.856C50.4188 174.753 54.4619 171.322 55.6727 170.562L61.6992 165.08L56.405 158.971C54.6172 157.298 52.6879 154.885 51.0166 153.009L46.144 147.567C45.6711 147.237 46.04 147.423 45.5698 147.349L56.1082 159.247L56.1068 159.248Z" fill="#838383"/>
<path fill-rule="evenodd" clip-rule="evenodd" d="M13.6424 207.249C13.6493 207.615 13.1694 206.997 14.0099 208.073L18.4622 213.2L9.44949 221.089C8.94462 221.531 6.71433 223.022 6.92654 223.712L18.6619 213.352L23.8174 219.366C23.9824 218.527 22.1877 216.987 21.6315 216.352C20.7216 215.313 19.8145 214.263 18.8963 213.231L30.3418 203.12C30.6816 202.669 30.4694 202.968 30.5804 202.579L18.6841 212.975L13.6424 207.249Z" fill="#797979"/>
<path fill-rule="evenodd" clip-rule="evenodd" d="M25.8938 185.589C26.9244 186.019 30.4695 190.456 31.2837 191.368L25.4569 196.513L20.3569 190.503C20.3084 190.984 19.9006 190.415 20.7023 191.522L25.2572 196.675L14.7035 205.989C13.4123 207.091 13.5482 206.843 13.6411 207.249L25.6109 196.854L31.5486 191.489L26.2101 185.307L25.8924 185.587L25.8938 185.589Z" fill="#696969"/>
<path fill-rule="evenodd" clip-rule="evenodd" d="M21.8188 168.085C21.9755 169.174 26.081 173.432 26.7634 174.167L21.3902 178.826C20.7661 179.53 21.0019 179.06 21.0143 179.587L26.916 174.329L32.034 180.357C32.1769 179.931 32.6193 180.411 31.1824 178.809L27.1407 174.192L32.3891 169.515C33.4321 168.695 32.6526 169.404 32.7331 168.839L26.9188 173.975L21.8188 168.086V168.085Z" fill="#7E7E7E"/>
</g>
<defs>
<clipPath id="clip0_148_29">
<rect width="989.042" height="300.135" fill="white"/>
</clipPath>
</defs>
</svg>
