<svg width="176" height="60" viewBox="0 0 176 60" fill="none" xmlns="http://www.w3.org/2000/svg">
<g clip-path="url(#clip0_14_117)">
<path d="M21.7467 27.619L11.6122 0.95238H17.8012L28.3226 27.619H21.7467ZM0.626759 27.619L11.1481 0.95238H17.3371L7.20259 27.619H0.626759ZM5.57797 22.5524V17.1429H23.41V22.5524H5.57797ZM31.2787 27.619V0.95238H37.8158L49.691 17.219V0.95238H55.9187V27.619H49.691L37.5064 10.8952V27.619H31.2787ZM72.0657 28.1143C69.7448 28.1143 67.7334 27.6826 66.0314 26.819C64.3553 25.9555 63.0658 24.7365 62.1633 23.1619C61.2608 21.5619 60.8095 19.6698 60.8095 17.4857V0.95238H67.0372V17.4857C67.0372 18.5016 67.2434 19.3778 67.656 20.1143C68.0687 20.8508 68.6489 21.4222 69.3967 21.8286C70.1703 22.235 71.0858 22.4381 72.1431 22.4381C73.1746 22.4381 74.0771 22.235 74.8508 21.8286C75.6244 21.4222 76.2175 20.8508 76.6301 20.1143C77.0428 19.3778 77.249 18.5016 77.249 17.4857V0.95238H83.4767V17.4857C83.4767 19.6698 83.0125 21.5619 82.0842 23.1619C81.1817 24.7365 79.8665 25.9555 78.1387 26.819C76.4367 27.6826 74.4124 28.1143 72.0657 28.1143ZM88.3563 27.619V0.95238H94.8934L106.768 17.219V0.95238H112.996V27.619H106.768L94.584 10.8952V27.619H88.3563ZM130.497 28.0762C127.816 28.0762 125.443 27.4921 123.38 26.3238C121.342 25.1302 119.731 23.5048 118.545 21.4476C117.384 19.365 116.804 16.9778 116.804 14.2857C116.804 11.5936 117.384 9.21905 118.545 7.16191C119.731 5.07936 121.342 3.45397 123.38 2.28572C125.443 1.09207 127.816 0.495239 130.497 0.495239C132.457 0.495239 134.249 0.838096 135.874 1.52381C137.525 2.18413 138.942 3.12381 140.129 4.34286C141.341 5.56191 142.269 6.97143 142.914 8.57143L137.073 10.5143C136.686 9.62543 136.157 8.85079 135.487 8.19048C134.842 7.53016 134.095 7.02222 133.244 6.66667C132.419 6.31112 131.503 6.13333 130.497 6.13333C129.079 6.13333 127.816 6.47619 126.706 7.16191C125.597 7.84762 124.734 8.8127 124.115 10.0571C123.496 11.2762 123.186 12.6857 123.186 14.2857C123.186 15.8857 123.496 17.3079 124.115 18.5524C124.76 19.7714 125.636 20.7365 126.745 21.4476C127.879 22.1333 129.169 22.4762 130.613 22.4762C131.67 22.4762 132.612 22.2857 133.437 21.9048C134.262 21.5238 134.972 20.9905 135.564 20.3048C136.183 19.619 136.712 18.8317 137.15 17.9429L142.991 19.8857C142.372 21.5111 141.457 22.946 140.245 24.1905C139.033 25.4095 137.602 26.3619 135.951 27.0476C134.301 27.7333 132.483 28.0762 130.497 28.0762ZM146.378 27.619V0.95238H152.606V27.619H146.378ZM157.861 27.619V0.95238H175.5V6.59048H164.089V11.4667H173.643V16.9143H164.089V21.981H175.693V27.619H157.861Z" fill="#FFCC00"/>
<path d="M101.715 58.0952L91.5813 31.4286H97.7699L108.291 58.0952H101.715ZM80.5958 58.0952L91.1171 31.4286H97.3058L87.1716 58.0952H80.5958ZM85.547 53.0286V47.6191H103.379V53.0286H85.547ZM124.012 58.5524C121.227 58.5524 118.765 57.9683 116.624 56.8C114.484 55.6064 112.808 53.981 111.596 51.9238C110.384 49.8412 109.778 47.454 109.778 44.7619C109.778 42.7555 110.126 40.9143 110.822 39.2381C111.518 37.5619 112.499 36.1016 113.762 34.8571C115.026 33.6127 116.508 32.6603 118.21 32C119.938 31.3143 121.846 30.9714 123.935 30.9714C126.695 30.9714 129.132 31.5683 131.246 32.7619C133.387 33.9302 135.063 35.5555 136.274 37.6381C137.487 39.6952 138.092 42.0826 138.092 44.8C138.092 47.4667 137.487 49.8412 136.274 51.9238C135.089 53.981 133.438 55.6064 131.323 56.8C129.209 57.9683 126.772 58.5524 124.012 58.5524ZM133.76 59.7333L123.625 49.6L127.61 45.9048L137.628 56L133.76 59.7333ZM124.012 52.9143C125.534 52.9143 126.875 52.5714 128.035 51.8857C129.196 51.2 130.099 50.2476 130.743 49.0286C131.388 47.7841 131.71 46.3619 131.71 44.7619C131.71 43.1873 131.375 41.7905 130.704 40.5714C130.034 39.327 129.118 38.3619 127.958 37.6762C126.797 36.9651 125.457 36.6095 123.935 36.6095C122.414 36.6095 121.073 36.9651 119.912 37.6762C118.752 38.3619 117.837 39.327 117.166 40.5714C116.496 41.7905 116.16 43.1873 116.16 44.7619C116.16 46.3619 116.496 47.7841 117.166 49.0286C117.837 50.2476 118.765 51.2 119.951 51.8857C121.137 52.5714 122.491 52.9143 124.012 52.9143ZM152.79 58.5905C150.469 58.5905 148.458 58.1588 146.756 57.2952C145.08 56.4317 143.79 55.2127 142.888 53.6381C141.986 52.0381 141.534 50.146 141.534 47.9619V31.4286H147.762V47.9619C147.762 48.9778 147.968 49.854 148.381 50.5905C148.793 51.327 149.374 51.8984 150.121 52.3048C150.895 52.7111 151.811 52.9143 152.868 52.9143C153.899 52.9143 154.802 52.7111 155.575 52.3048C156.349 51.8984 156.942 51.327 157.355 50.5905C157.768 49.854 157.974 48.9778 157.974 47.9619V31.4286H164.201V47.9619C164.201 50.146 163.737 52.0381 162.809 53.6381C161.906 55.2127 160.591 56.4317 158.863 57.2952C157.161 58.1588 155.137 58.5905 152.79 58.5905ZM169.081 58.0952V31.4286H175.309V58.0952H169.081Z" fill="white"/>
<path d="M46.001 57.7981L58.8432 32.4724H62.8351L50.0548 57.7981H46.001ZM54.8071 57.7981L67.6493 32.4724H71.6412L58.8609 57.7981H54.8071ZM63.6131 57.7981L76.4553 32.4724H80.4472L67.6669 57.7981H63.6131Z" fill="white"/>
</g>
<defs>
<clipPath id="clip0_14_117">
<rect width="176" height="60" fill="white"/>
</clipPath>
</defs>
</svg>
